<svg width="704" height="700" viewBox="0 0 704 700" fill="none" xmlns="http://www.w3.org/2000/svg">
<g clip-path="url(#clip0)">
<path d="M81.0175 136.5C-2.48249 -160 201.518 -80 213.018 -106L859.017 -91.5L822.017 706H284.354C236.098 777.022 145.315 745.254 89.0175 706H284.354C309.243 669.369 322.82 605.394 314.517 501C284.017 117.5 164.518 433 81.0175 136.5Z" fill="#A4E4E2"/>
<path d="M139.018 91.5C55.5175 -205 259.518 -125 271.018 -151L917.017 -136.5L890.5 720H312.694C265.797 761.432 202.211 751.176 157.5 720H312.694C355.301 682.357 384.133 602.049 372.517 456C342.017 72.5 222.518 388 139.018 91.5Z" fill="#89DBD9"/>
<path d="M213.018 61.5C129.518 -235 333.518 -155 345.018 -181L991.017 -166.5L1042 717H413.076C386.455 750.019 348.673 744.663 309 717H413.076C443.716 678.998 459.573 590.164 446.517 426C416.017 42.5 296.518 358 213.018 61.5Z" fill="#6DD3D0"/>
</g>
<defs>
<clipPath id="clip0">
<rect width="704" height="700" fill="white"/>
</clipPath>
</defs>
</svg>
