<svg width="122" height="65" viewBox="0 0 122 65" fill="none" xmlns="http://www.w3.org/2000/svg">
<path d="M105.3 32.3998H105.294C104.996 32.3998 104.739 32.1992 104.655 31.9125C102.693 25.174 96.4714 20.2498 89.0996 20.2498C86.3431 20.2498 83.749 20.9402 81.4775 22.1554C80.5872 22.6317 79.482 22.3828 78.9159 21.5467C76.7318 18.3205 73.039 16.1998 68.8498 16.1998C67.8701 16.1998 66.9176 16.3164 66.0054 16.5358C65.017 16.7736 63.9964 16.2424 63.6772 15.2772C60.7432 6.40346 52.3824 0 42.5248 0C30.2228 0 20.2499 9.9729 20.2499 22.2749C20.2499 22.5544 20.2571 22.8319 20.2687 23.1082C20.2803 23.3818 20.1904 23.6501 20.022 23.866L20.0047 23.8884C19.7937 24.1586 19.4743 24.3184 19.1317 24.3369C8.3533 24.9242 -0.183449 33.9343 0.00299671 44.902C0.191369 55.9895 9.41512 64.7999 20.5043 64.7999H105.058C113.962 64.7999 121.383 57.7176 121.499 48.815C121.616 39.7695 114.318 32.3998 105.3 32.3998Z" fill="#ECF4FF"/>
<path d="M105.3 32.3998H105.294C104.996 32.3998 104.739 32.1992 104.655 31.9125C102.693 25.174 96.4714 20.2498 89.0996 20.2498C86.3431 20.2498 83.749 20.9402 81.4775 22.1554C80.5872 22.6317 79.482 22.3828 78.9159 21.5467C76.7318 18.3205 73.039 16.1998 68.8498 16.1998C67.8701 16.1998 66.9176 16.3164 66.0054 16.5358C65.017 16.7736 63.9964 16.2424 63.6772 15.2772C60.7432 6.40346 52.3824 0 42.5248 0C30.2228 0 20.2499 9.9729 20.2499 22.2749C20.2499 22.5544 20.2571 22.8319 20.2687 23.1082C20.2803 23.3818 20.1904 23.6501 20.022 23.866L20.0047 23.8884C19.7937 24.1586 19.4743 24.3184 19.1317 24.3369C8.3533 24.9242 -0.183449 33.9343 0.00299671 44.902C0.191369 55.9895 9.41512 64.7999 20.5043 64.7999H105.058C113.962 64.7999 121.383 57.7176 121.499 48.815C121.616 39.7695 114.318 32.3998 105.3 32.3998Z" fill="#ECF4FF"/>
<path d="M105.3 32.3998H105.294C104.996 32.3998 104.739 32.1992 104.655 31.9125C102.693 25.174 96.4714 20.2498 89.0996 20.2498C88.1411 20.2498 87.2028 20.3351 86.2901 20.495C92.3959 21.5643 97.3258 26.051 99.0325 31.9125C99.1158 32.1989 99.3729 32.3998 99.6713 32.3998H99.6769C108.695 32.3998 115.993 39.7692 115.875 48.815C115.76 57.7176 108.339 64.7999 99.4352 64.7999H105.058C113.961 64.7999 121.383 57.7176 121.498 48.815C121.615 39.7695 114.318 32.3998 105.3 32.3998V32.3998Z" fill="#DAEAFF"/>
<path d="M38.6661 44.5501C38.6661 45.5627 39.487 46.3837 40.4995 46.3837C41.5121 46.3837 42.3328 45.563 42.3328 44.5501C42.3328 32.0115 32.6054 21.7026 20.301 20.7727C20.268 21.2694 20.2494 21.77 20.2494 22.2749C20.2494 22.5543 20.2567 22.8318 20.2682 23.1081C20.2798 23.3818 20.1899 23.6501 20.0216 23.8659L20.0042 23.8883C19.7932 24.1586 19.4738 24.3183 19.1312 24.3369C18.9686 24.3458 18.8085 24.3626 18.6468 24.3752C29.7001 24.4617 38.6661 33.477 38.6661 44.5501V44.5501Z" fill="#DDEAFB"/>
<path d="M65.8031 16.5732C64.8809 16.6987 63.9742 16.1769 63.6768 15.2774C63.4927 14.7207 63.287 14.1737 63.0613 13.6372C56.2898 16.0292 51.4231 22.4912 51.4231 30.0714C51.4231 31.0841 52.2441 31.905 53.2565 31.905C54.269 31.905 55.0899 31.0843 55.0899 30.0714C55.0899 23.5314 59.6776 17.9896 65.8028 16.5833V16.5732H65.8031Z" fill="#DDEAFB"/>
<path d="M90.9332 49.5166C90.9332 48.504 90.1122 47.683 89.0998 47.683C88.0874 47.683 87.2662 48.5037 87.2662 49.5166C87.2662 55.7842 90.3266 61.3482 95.0297 64.7998H105.058C105.255 64.7998 105.449 64.7921 105.644 64.7854C97.4812 64.4826 90.9332 57.7518 90.9332 49.5166V49.5166Z" fill="#DDEAFB"/>
</svg>
